<svg width="17" height="17" viewBox="0 0 17 17" fill="none" xmlns="http://www.w3.org/2000/svg">
<path d="M4.12267 16.9757C4.12267 16.2967 4.12267 15.6419 4.12267 14.9387C2.74036 14.9387 1.38231 14.9387 0 14.9387C0 14.8417 0 14.7932 0 14.7204C0 10.8887 0 7.08131 0 3.24964C0 3.12839 0.024251 3.03138 0.048502 2.91013C0.363765 2.01284 0.679028 1.0913 0.97004 0.169757C1.01854 0.0485021 1.06704 0 1.1883 0C6.23251 0 11.2525 0 16.2967 0C16.3452 0 16.3937 0 16.4664 0C16.4664 0.0727532 16.4664 0.145506 16.4664 0.21826C16.4664 3.51641 16.4664 6.7903 16.4664 10.0884C16.4664 10.234 16.4179 10.331 16.3209 10.428C14.8659 11.883 13.4108 13.3381 11.9557 14.7932C11.8587 14.8902 11.7617 14.9387 11.6162 14.9387C10.7189 14.9387 9.84591 14.9387 8.94862 14.9387C8.77886 14.9387 8.65761 14.9872 8.53635 15.1084C7.95433 15.7147 7.34805 16.2967 6.76603 16.8787C6.71753 16.9272 6.62052 17 6.54777 17C5.74749 17 4.97146 17 4.17117 17C4.17117 16.9757 4.14692 16.9757 4.12267 16.9757ZM2.54636 1.52782C2.54636 5.14123 2.54636 8.75464 2.54636 12.368C3.75891 12.368 4.9472 12.368 6.15975 12.368C6.15975 13.0471 6.15975 13.7261 6.15975 14.4294C6.20826 14.3809 6.25676 14.3566 6.28101 14.3081C6.88728 13.7019 7.49356 13.0956 8.09984 12.4893C8.19684 12.3923 8.26959 12.368 8.39085 12.368C9.6519 12.368 10.913 12.368 12.174 12.368C12.271 12.368 12.3923 12.3195 12.4408 12.2468C13.2168 11.4708 14.0171 10.6947 14.7931 9.91869C14.8901 9.82168 14.9144 9.74893 14.9144 9.62768C14.9144 6.98431 14.9144 4.36519 14.9144 1.72183C14.9144 1.64907 14.9144 1.60057 14.9144 1.52782C10.7917 1.52782 6.69328 1.52782 2.54636 1.52782Z" fill="#AAAAAA"/>
<path d="M8.22107 4.65625C8.22107 6.18408 8.22107 7.71191 8.22107 9.23975C7.71179 9.23975 7.20251 9.23975 6.69324 9.23975C6.69324 7.71191 6.69324 6.18408 6.69324 4.65625C7.20251 4.65625 7.71179 4.65625 8.22107 4.65625Z" fill="#AAAAAA"/>
<path d="M12.3196 9.23975C11.8103 9.23975 11.3252 9.23975 10.8159 9.23975C10.8159 7.71191 10.8159 6.18408 10.8159 4.65625C11.301 4.65625 11.8103 4.65625 12.3196 4.65625C12.3196 6.18408 12.3196 7.68766 12.3196 9.23975Z" fill="#AAAAAA"/>
</svg>
