<svg width="9" height="20" viewBox="0 0 9 20" fill="none" xmlns="http://www.w3.org/2000/svg">
<path fill-rule="evenodd" clip-rule="evenodd" d="M1.95559 9.57741V18.7537C1.95559 18.9041 2.05588 19.0044 2.20631 19.0044H5.61605C5.76648 19.0044 5.86677 18.9041 5.86677 18.7537V9.42698H8.32379C8.42408 9.42698 8.57451 9.3267 8.57451 9.22641L8.82522 6.41837C8.82522 6.26794 8.72494 6.16765 8.57451 6.16765H5.86677V4.16191C5.86677 3.71062 6.26791 3.30947 6.7192 3.30947H8.62465C8.77508 3.30947 8.87537 3.20919 8.87537 3.05875V0.250718C8.87537 0.100287 8.77508 0 8.62465 0H5.41548C3.51003 0 2.00573 1.55445 2.00573 3.40976V6.11751H0.250717C0.100287 6.11751 0 6.2178 0 6.36823V9.17626C0 9.3267 0.100287 9.42698 0.250717 9.42698H1.95559V9.57741Z" fill="#AAAAAA"/>
</svg>
