<svg width="18" height="18" viewBox="0 0 18 18" fill="none" xmlns="http://www.w3.org/2000/svg">
<path d="M0.300862 5.76937H3.91121V17.3022H0.300862V5.76937ZM2.10604 0.00292969C3.25934 0.00292969 4.16193 0.955649 4.16193 2.05879C4.16193 3.21208 3.2092 4.1648 2.10604 4.1648C0.952731 4.1648 0 3.21208 0 2.05879C0 0.955649 0.952731 0.00292969 2.10604 0.00292969ZM6.11754 17.3022H9.72788V11.586C9.72788 10.0817 10.0287 8.62751 11.8841 8.62751C13.7394 8.62751 13.7394 10.3324 13.7394 11.6862V17.3022H17.3497V10.9842C17.3497 7.87538 16.6979 5.46852 13.0374 5.46852C11.2823 5.46852 10.129 6.42123 9.6276 7.3238H9.57745V5.76937H6.11754V17.3022Z" fill="#AAAAAA"/>
</svg>
