<svg width="28" height="14" viewBox="0 0 28 14" fill="none" xmlns="http://www.w3.org/2000/svg">
<rect x="1.63879" y="1.11975" width="24.87" height="12.0616" rx="2.25" fill="white" stroke="white" stroke-width="1.5"/>
<path d="M8.06885 7.52852L7.19609 4.04773H5.53118L4.42358 10.2958H5.84576L6.52049 6.5021L7.28547 9.5014H8.25812L9.95895 6.5021L9.28335 10.2958H10.7327L11.8394 4.04773H10.0571L8.06885 7.52852Z" fill="#7635EF"/>
<path d="M17.0943 5.33315L17.3195 4.04773H13.0539L11.9463 10.2958H16.2128L16.4371 9.01036H13.6743L13.8995 7.7345H16.1129L16.3381 6.46647H14.1247L14.3227 5.33315H17.0943Z" fill="#7635EF"/>
<path d="M21.3241 6.44908H19.3709L19.7941 4.04773H18.3001L17.1934 10.2958H18.6874L19.1369 7.75188H21.0901L20.6406 10.2958H22.1337L23.2413 4.04773H21.7473L21.3241 6.44908Z" fill="#7635EF"/>
</svg>
