<svg width="16" height="14" viewBox="0 0 16 14" fill="none" xmlns="http://www.w3.org/2000/svg">
<path d="M0.722839 7.44339C0.73907 7.4018 0.755974 7.36155 0.770851 7.31997C0.825135 7.16808 0.927511 7.03769 1.06269 6.94828C1.19786 6.85888 1.35858 6.81526 1.52082 6.82394C1.68306 6.83262 1.83812 6.89314 1.96281 6.99645C2.08751 7.09975 2.17515 7.2403 2.21265 7.3971C2.23193 7.48862 2.24077 7.58199 2.23902 7.67546C2.23902 8.69431 2.23902 9.71316 2.23902 10.7313C2.23776 11.0835 2.34869 11.4271 2.556 11.7131C2.7633 11.999 3.05638 12.2127 3.3934 12.3237C3.59573 12.3896 3.80732 12.4233 4.0203 12.4236C6.90343 12.4303 9.78633 12.4303 12.669 12.4236C13.5272 12.4236 14.2089 11.9031 14.4009 11.1036C14.4346 10.9494 14.4502 10.7918 14.4476 10.6341C14.4512 9.63513 14.4512 8.63618 14.4476 7.63722C14.4476 7.34076 14.5477 7.09527 14.8067 6.93429C14.9151 6.86703 15.0391 6.82825 15.1668 6.82159C15.2946 6.81493 15.4219 6.84061 15.5369 6.89622C15.6519 6.95183 15.7507 7.03554 15.8241 7.13948C15.8975 7.24341 15.943 7.36415 15.9563 7.49034C15.9614 7.54429 15.9634 7.59848 15.9624 7.65266C15.9624 8.65161 15.9624 9.65056 15.9624 10.6495C15.9624 11.6388 15.5979 12.4732 14.8479 13.1312C14.3195 13.603 13.6429 13.8791 12.9328 13.9127C12.715 13.9241 12.4966 13.9281 12.2781 13.9281H4.08318C3.44073 13.9281 2.83277 13.7939 2.28297 13.4586C1.41736 12.922 0.907456 12.1506 0.753268 11.1445C0.746505 11.1016 0.732983 11.0593 0.722839 11.0171V7.44339Z" fill="white"/>
<path d="M10.3365 5.11725V5.30976C10.3365 6.72725 10.3365 8.14452 10.3365 9.56156C10.3365 9.81711 10.2804 10.0505 10.0951 10.2377C10.0116 10.3224 9.91108 10.3888 9.80006 10.4326C9.68904 10.4764 9.56999 10.4966 9.45061 10.4919C9.03404 10.4919 8.61678 10.4919 8.20021 10.4919C7.9128 10.4919 7.62403 10.4778 7.3373 10.4919C6.72867 10.5274 6.34591 10.121 6.35199 9.52132C6.36552 8.11948 6.35606 6.71696 6.35606 5.31445V5.11323H4.86422C4.60657 5.11323 4.39896 5.02067 4.27047 4.79061C4.20999 4.69078 4.18079 4.57538 4.18657 4.45906C4.19235 4.34274 4.23285 4.23075 4.30293 4.13731C4.3431 4.08081 4.38837 4.02805 4.43818 3.97969C5.57429 2.85151 6.71041 1.72355 7.84653 0.595812C8.02371 0.420079 8.22524 0.331543 8.4768 0.378494C8.62252 0.412704 8.75391 0.490988 8.8528 0.602518C9.48398 1.22854 10.1152 1.85456 10.7463 2.48058C11.2513 2.98185 11.7564 3.48267 12.2618 3.98304C12.4458 4.16481 12.5465 4.3714 12.4843 4.63366C12.4554 4.75661 12.3888 4.86769 12.2938 4.95173C12.1988 5.03577 12.0799 5.08866 11.9534 5.10317C11.8892 5.10988 11.825 5.11122 11.76 5.11189H10.3399L10.3365 5.11725Z" fill="white"/>
</svg>
